<mxfile host="65bd71144e">
    <diagram id="Mq5Ix5mnKa74rC8BwifD" name="第 1 页">
        <mxGraphModel dx="1655" dy="518" grid="1" gridSize="10" guides="1" tooltips="1" connect="1" arrows="1" fold="1" page="1" pageScale="1" pageWidth="827" pageHeight="1169" math="0" shadow="0">
            <root>
                <mxCell id="0"/>
                <mxCell id="1" parent="0"/>
                <mxCell id="2" style="edgeStyle=none;html=1;entryX=0.5;entryY=0;entryDx=0;entryDy=0;fontSize=22;fillColor=#f5f5f5;strokeColor=#666666;" parent="1" source="4" target="9" edge="1">
                    <mxGeometry relative="1" as="geometry"/>
                </mxCell>
                <mxCell id="3" style="edgeStyle=none;html=1;fontSize=22;fillColor=#f5f5f5;strokeColor=#666666;entryX=0.5;entryY=0;entryDx=0;entryDy=0;" parent="1" source="4" target="12" edge="1">
                    <mxGeometry relative="1" as="geometry">
                        <mxPoint x="450" y="200" as="targetPoint"/>
                    </mxGeometry>
                </mxCell>
                <mxCell id="4" value="13" style="ellipse;whiteSpace=wrap;html=1;aspect=fixed;fontSize=22;fillColor=#4D4D4D;fontColor=#FFFFFF;" parent="1" vertex="1">
                    <mxGeometry x="350" y="120" width="40" height="40" as="geometry"/>
                </mxCell>
                <mxCell id="5" style="edgeStyle=none;html=1;entryX=0.5;entryY=0;entryDx=0;entryDy=0;fillColor=#f5f5f5;strokeColor=#666666;" parent="1" source="6" target="16" edge="1">
                    <mxGeometry relative="1" as="geometry"/>
                </mxCell>
                <mxCell id="35" style="edgeStyle=none;html=1;entryX=0.5;entryY=0;entryDx=0;entryDy=0;fontSize=16;fontColor=#000000;strokeColor=#000000;" parent="1" source="6" target="27" edge="1">
                    <mxGeometry relative="1" as="geometry"/>
                </mxCell>
                <mxCell id="6" value="1" style="ellipse;whiteSpace=wrap;html=1;aspect=fixed;fontSize=22;fillColor=#4D4D4D;fontColor=#FFFFFF;" parent="1" vertex="1">
                    <mxGeometry x="40" y="280" width="40" height="40" as="geometry"/>
                </mxCell>
                <mxCell id="7" style="edgeStyle=none;html=1;entryX=0.5;entryY=0;entryDx=0;entryDy=0;fontSize=22;fillColor=#f5f5f5;strokeColor=#666666;" parent="1" source="9" target="6" edge="1">
                    <mxGeometry relative="1" as="geometry"/>
                </mxCell>
                <mxCell id="8" style="edgeStyle=none;html=1;entryX=0.5;entryY=0;entryDx=0;entryDy=0;fillColor=#f5f5f5;strokeColor=#666666;" parent="1" source="9" target="18" edge="1">
                    <mxGeometry relative="1" as="geometry"/>
                </mxCell>
                <mxCell id="9" value="8" style="ellipse;whiteSpace=wrap;html=1;aspect=fixed;fontSize=22;fillColor=#FF3333;strokeColor=#FF3333;fontColor=#FFFFFF;" parent="1" vertex="1">
                    <mxGeometry x="160" y="200" width="40" height="40" as="geometry"/>
                </mxCell>
                <mxCell id="10" style="edgeStyle=none;html=1;entryX=0.5;entryY=0;entryDx=0;entryDy=0;fontSize=22;fillColor=#f5f5f5;strokeColor=#666666;" parent="1" source="12" target="14" edge="1">
                    <mxGeometry relative="1" as="geometry"/>
                </mxCell>
                <mxCell id="11" style="edgeStyle=none;html=1;entryX=0.5;entryY=0;entryDx=0;entryDy=0;fillColor=#f5f5f5;strokeColor=#666666;" parent="1" source="12" target="15" edge="1">
                    <mxGeometry relative="1" as="geometry"/>
                </mxCell>
                <mxCell id="12" value="17" style="ellipse;whiteSpace=wrap;html=1;aspect=fixed;fontSize=22;fillColor=#FF3333;strokeColor=#FF3333;fontColor=#FFFFFF;" parent="1" vertex="1">
                    <mxGeometry x="560" y="200" width="40" height="40" as="geometry"/>
                </mxCell>
                <mxCell id="13" style="edgeStyle=none;html=1;entryX=0.5;entryY=0;entryDx=0;entryDy=0;fillColor=#f5f5f5;strokeColor=#000000;fontColor=#000000;" parent="1" source="14" target="20" edge="1">
                    <mxGeometry relative="1" as="geometry"/>
                </mxCell>
                <mxCell id="22" style="edgeStyle=none;html=1;entryX=0.5;entryY=0;entryDx=0;entryDy=0;fillColor=#f5f5f5;strokeColor=#000000;fontColor=#000000;" parent="1" source="14" target="21" edge="1">
                    <mxGeometry relative="1" as="geometry"/>
                </mxCell>
                <mxCell id="14" value="25" style="ellipse;whiteSpace=wrap;html=1;aspect=fixed;fontSize=22;fillColor=#4D4D4D;fontColor=#FFFFFF;" parent="1" vertex="1">
                    <mxGeometry x="680" y="280" width="40" height="40" as="geometry"/>
                </mxCell>
                <mxCell id="39" style="edgeStyle=none;html=1;entryX=0.5;entryY=0;entryDx=0;entryDy=0;fontSize=16;fontColor=#FFFFFF;" parent="1" source="15" target="29" edge="1">
                    <mxGeometry relative="1" as="geometry"/>
                </mxCell>
                <mxCell id="40" style="edgeStyle=none;html=1;entryX=0.5;entryY=0;entryDx=0;entryDy=0;fontSize=16;fontColor=#FFFFFF;" parent="1" source="15" target="30" edge="1">
                    <mxGeometry relative="1" as="geometry"/>
                </mxCell>
                <mxCell id="15" value="15" style="ellipse;whiteSpace=wrap;html=1;aspect=fixed;fontSize=22;fillColor=#4D4D4D;fontColor=#FFFFFF;" parent="1" vertex="1">
                    <mxGeometry x="440" y="280" width="40" height="40" as="geometry"/>
                </mxCell>
                <mxCell id="36" style="edgeStyle=none;html=1;entryX=0.5;entryY=0;entryDx=0;entryDy=0;fontSize=16;fontColor=#FFFFFF;" parent="1" source="16" target="28" edge="1">
                    <mxGeometry relative="1" as="geometry"/>
                </mxCell>
                <mxCell id="37" style="edgeStyle=none;html=1;entryX=0.5;entryY=0;entryDx=0;entryDy=0;fontSize=16;fontColor=#FFFFFF;" parent="1" source="16" target="26" edge="1">
                    <mxGeometry relative="1" as="geometry"/>
                </mxCell>
                <mxCell id="16" value="6" style="ellipse;whiteSpace=wrap;html=1;aspect=fixed;fontSize=22;fillColor=#FF3333;strokeColor=#FF3333;fontColor=#FFFFFF;" parent="1" vertex="1">
                    <mxGeometry x="120" y="360" width="40" height="40" as="geometry"/>
                </mxCell>
                <mxCell id="17" style="edgeStyle=none;html=1;entryX=0.5;entryY=0;entryDx=0;entryDy=0;fillColor=#f5f5f5;strokeColor=#666666;" parent="1" source="18" target="19" edge="1">
                    <mxGeometry relative="1" as="geometry"/>
                </mxCell>
                <mxCell id="38" style="edgeStyle=none;html=1;entryX=0.5;entryY=0;entryDx=0;entryDy=0;fontSize=16;fontColor=#FFFFFF;" parent="1" source="18" target="25" edge="1">
                    <mxGeometry relative="1" as="geometry"/>
                </mxCell>
                <mxCell id="18" value="11" style="ellipse;whiteSpace=wrap;html=1;aspect=fixed;fontSize=22;fillColor=#4D4D4D;fontColor=#FFFFFF;" parent="1" vertex="1">
                    <mxGeometry x="280" y="280" width="40" height="40" as="geometry"/>
                </mxCell>
                <mxCell id="19" value="NIL" style="ellipse;whiteSpace=wrap;html=1;aspect=fixed;fontSize=16;fillColor=#4D4D4D;strokeColor=#23445d;fontColor=#FFFFFF;" parent="1" vertex="1">
                    <mxGeometry x="320" y="360" width="40" height="40" as="geometry"/>
                </mxCell>
                <mxCell id="41" style="edgeStyle=none;html=1;entryX=0.5;entryY=0;entryDx=0;entryDy=0;fontSize=16;fontColor=#FFFFFF;" parent="1" source="20" target="33" edge="1">
                    <mxGeometry relative="1" as="geometry"/>
                </mxCell>
                <mxCell id="42" style="edgeStyle=none;html=1;entryX=0.5;entryY=0;entryDx=0;entryDy=0;fontSize=16;fontColor=#FFFFFF;" parent="1" source="20" target="34" edge="1">
                    <mxGeometry relative="1" as="geometry"/>
                </mxCell>
                <mxCell id="20" value="22" style="ellipse;whiteSpace=wrap;html=1;aspect=fixed;fontSize=22;fillColor=#FF3333;strokeColor=#FF3333;fontColor=#FFFFFF;" parent="1" vertex="1">
                    <mxGeometry x="600" y="360" width="40" height="40" as="geometry"/>
                </mxCell>
                <mxCell id="43" style="edgeStyle=none;html=1;entryX=0.5;entryY=0;entryDx=0;entryDy=0;fontSize=16;fontColor=#FFFFFF;" parent="1" source="21" target="31" edge="1">
                    <mxGeometry relative="1" as="geometry"/>
                </mxCell>
                <mxCell id="44" style="edgeStyle=none;html=1;entryX=0.5;entryY=0;entryDx=0;entryDy=0;fontSize=16;fontColor=#FFFFFF;" parent="1" source="21" target="32" edge="1">
                    <mxGeometry relative="1" as="geometry"/>
                </mxCell>
                <mxCell id="21" value="27" style="ellipse;whiteSpace=wrap;html=1;aspect=fixed;fontSize=22;fillColor=#FF3333;strokeColor=#FF3333;fontColor=#FFFFFF;" parent="1" vertex="1">
                    <mxGeometry x="760" y="360" width="40" height="40" as="geometry"/>
                </mxCell>
                <mxCell id="25" value="NIL" style="ellipse;whiteSpace=wrap;html=1;aspect=fixed;fontSize=16;fillColor=#4D4D4D;strokeColor=#23445d;fontColor=#FFFFFF;" parent="1" vertex="1">
                    <mxGeometry x="240" y="360" width="40" height="40" as="geometry"/>
                </mxCell>
                <mxCell id="26" value="NIL" style="ellipse;whiteSpace=wrap;html=1;aspect=fixed;fontSize=16;fillColor=#4D4D4D;strokeColor=#23445d;fontColor=#FFFFFF;" parent="1" vertex="1">
                    <mxGeometry x="160" y="440" width="40" height="40" as="geometry"/>
                </mxCell>
                <mxCell id="27" value="NIL" style="ellipse;whiteSpace=wrap;html=1;aspect=fixed;fontSize=16;fillColor=#4D4D4D;strokeColor=#23445d;fontColor=#FFFFFF;" parent="1" vertex="1">
                    <mxGeometry x="-40" y="360" width="40" height="40" as="geometry"/>
                </mxCell>
                <mxCell id="28" value="NIL" style="ellipse;whiteSpace=wrap;html=1;aspect=fixed;fontSize=16;fillColor=#4D4D4D;strokeColor=#23445d;fontColor=#FFFFFF;" parent="1" vertex="1">
                    <mxGeometry x="80" y="440" width="40" height="40" as="geometry"/>
                </mxCell>
                <mxCell id="29" value="NIL" style="ellipse;whiteSpace=wrap;html=1;aspect=fixed;fontSize=16;fillColor=#4D4D4D;strokeColor=#23445d;fontColor=#FFFFFF;" parent="1" vertex="1">
                    <mxGeometry x="400" y="360" width="40" height="40" as="geometry"/>
                </mxCell>
                <mxCell id="30" value="NIL" style="ellipse;whiteSpace=wrap;html=1;aspect=fixed;fontSize=16;fillColor=#4D4D4D;strokeColor=#23445d;fontColor=#FFFFFF;" parent="1" vertex="1">
                    <mxGeometry x="480" y="360" width="40" height="40" as="geometry"/>
                </mxCell>
                <mxCell id="31" value="NIL" style="ellipse;whiteSpace=wrap;html=1;aspect=fixed;fontSize=16;fillColor=#4D4D4D;strokeColor=#23445d;fontColor=#FFFFFF;" parent="1" vertex="1">
                    <mxGeometry x="720" y="440" width="40" height="40" as="geometry"/>
                </mxCell>
                <mxCell id="32" value="NIL" style="ellipse;whiteSpace=wrap;html=1;aspect=fixed;fontSize=16;fillColor=#4D4D4D;strokeColor=#23445d;fontColor=#FFFFFF;" parent="1" vertex="1">
                    <mxGeometry x="800" y="440" width="40" height="40" as="geometry"/>
                </mxCell>
                <mxCell id="33" value="NIL" style="ellipse;whiteSpace=wrap;html=1;aspect=fixed;fontSize=16;fillColor=#4D4D4D;strokeColor=#23445d;fontColor=#FFFFFF;" parent="1" vertex="1">
                    <mxGeometry x="560" y="440" width="40" height="40" as="geometry"/>
                </mxCell>
                <mxCell id="34" value="NIL" style="ellipse;whiteSpace=wrap;html=1;aspect=fixed;fontSize=16;fillColor=#4D4D4D;strokeColor=#23445d;fontColor=#FFFFFF;" parent="1" vertex="1">
                    <mxGeometry x="640" y="440" width="40" height="40" as="geometry"/>
                </mxCell>
                <mxCell id="45" style="edgeStyle=none;html=1;entryX=0.5;entryY=0;entryDx=0;entryDy=0;fontSize=22;fillColor=#f5f5f5;strokeColor=#000000;fontColor=#000000;" edge="1" parent="1">
                    <mxGeometry relative="1" as="geometry">
                        <mxPoint x="350.92834669730155" y="146.02262735874683" as="sourcePoint"/>
                        <mxPoint x="180" y="200" as="targetPoint"/>
                    </mxGeometry>
                </mxCell>
                <mxCell id="46" style="edgeStyle=none;html=1;fontSize=22;fillColor=#f5f5f5;strokeColor=#000000;entryX=0.5;entryY=0;entryDx=0;entryDy=0;fontColor=#000000;" edge="1" parent="1">
                    <mxGeometry relative="1" as="geometry">
                        <mxPoint x="580" y="200" as="targetPoint"/>
                        <mxPoint x="389.23047895279683" y="145.4944225579419" as="sourcePoint"/>
                    </mxGeometry>
                </mxCell>
                <mxCell id="47" style="edgeStyle=none;html=1;entryX=0.5;entryY=0;entryDx=0;entryDy=0;fontSize=22;fillColor=#f5f5f5;strokeColor=#000000;fontColor=#000000;" edge="1" parent="1">
                    <mxGeometry relative="1" as="geometry">
                        <mxPoint x="597.8885438199982" y="228.9442719099991" as="sourcePoint"/>
                        <mxPoint x="700" y="280" as="targetPoint"/>
                    </mxGeometry>
                </mxCell>
                <mxCell id="48" style="edgeStyle=none;html=1;entryX=0.5;entryY=0;entryDx=0;entryDy=0;fillColor=#f5f5f5;strokeColor=#000000;fontColor=#000000;" edge="1" parent="1">
                    <mxGeometry relative="1" as="geometry">
                        <mxPoint x="562.1114561800018" y="228.9442719099991" as="sourcePoint"/>
                        <mxPoint x="460" y="280" as="targetPoint"/>
                    </mxGeometry>
                </mxCell>
                <mxCell id="49" style="edgeStyle=none;html=1;entryX=0.5;entryY=0;entryDx=0;entryDy=0;fontSize=22;fillColor=#f5f5f5;strokeColor=#000000;fontColor=#000000;" edge="1" parent="1">
                    <mxGeometry relative="1" as="geometry">
                        <mxPoint x="162.1114561800016" y="228.9442719099992" as="sourcePoint"/>
                        <mxPoint x="60" y="280" as="targetPoint"/>
                    </mxGeometry>
                </mxCell>
                <mxCell id="50" style="edgeStyle=none;html=1;entryX=0.5;entryY=0;entryDx=0;entryDy=0;fillColor=#f5f5f5;strokeColor=#000000;fontColor=#000000;" edge="1" parent="1">
                    <mxGeometry relative="1" as="geometry">
                        <mxPoint x="197.8885438199984" y="228.9442719099992" as="sourcePoint"/>
                        <mxPoint x="300" y="280" as="targetPoint"/>
                    </mxGeometry>
                </mxCell>
                <mxCell id="51" style="edgeStyle=none;html=1;entryX=0.5;entryY=0;entryDx=0;entryDy=0;fontSize=16;fontColor=#000000;strokeColor=#000000;" edge="1" parent="1">
                    <mxGeometry relative="1" as="geometry">
                        <mxPoint x="288.9059960754953" y="316.64100588675683" as="sourcePoint"/>
                        <mxPoint x="260" y="360" as="targetPoint"/>
                    </mxGeometry>
                </mxCell>
                <mxCell id="52" style="edgeStyle=none;html=1;entryX=0.5;entryY=0;entryDx=0;entryDy=0;fillColor=#f5f5f5;strokeColor=#000000;fontColor=#000000;" edge="1" parent="1">
                    <mxGeometry relative="1" as="geometry">
                        <mxPoint x="311.0940039245047" y="316.64100588675683" as="sourcePoint"/>
                        <mxPoint x="340" y="360" as="targetPoint"/>
                    </mxGeometry>
                </mxCell>
                <mxCell id="53" style="edgeStyle=none;html=1;entryX=0.5;entryY=0;entryDx=0;entryDy=0;fontSize=16;fontColor=#000000;strokeColor=#000000;" edge="1" parent="1">
                    <mxGeometry relative="1" as="geometry">
                        <mxPoint x="128.9059960754953" y="396.64100588675683" as="sourcePoint"/>
                        <mxPoint x="100" y="440" as="targetPoint"/>
                    </mxGeometry>
                </mxCell>
                <mxCell id="54" style="edgeStyle=none;html=1;entryX=0.5;entryY=0;entryDx=0;entryDy=0;fontSize=16;fontColor=#000000;strokeColor=#000000;" edge="1" parent="1">
                    <mxGeometry relative="1" as="geometry">
                        <mxPoint x="151.0940039245047" y="396.64100588675683" as="sourcePoint"/>
                        <mxPoint x="180" y="440" as="targetPoint"/>
                    </mxGeometry>
                </mxCell>
                <mxCell id="55" style="edgeStyle=none;html=1;entryX=0.5;entryY=0;entryDx=0;entryDy=0;fillColor=#f5f5f5;strokeColor=#000000;fontColor=#000000;" edge="1" parent="1">
                    <mxGeometry relative="1" as="geometry">
                        <mxPoint x="76" y="312" as="sourcePoint"/>
                        <mxPoint x="140" y="360" as="targetPoint"/>
                    </mxGeometry>
                </mxCell>
            </root>
        </mxGraphModel>
    </diagram>
</mxfile>
